{
  "accessors": [
    {
      "bufferView": 2,
      "componentType": 5126,
      "count": 65532,
      "max": [
        9.342192649841309,
        179.97311401367188,
        13.211348533630371
      ],
      "min": [
        -9.396234512329102,
        155.10403442382813,
        -8.743642807006836
      ],
      "type": "VEC3"
    },
    {
      "bufferView": 2,
      "byteOffset": 786384,
      "componentType": 5126,
      "count": 65532,
      "max": [
        0.9999839663505554,
        0.9999225735664368,
        0.999991238117218
      ],
      "min": [
        -0.9999840259552002,
        -0.9999827742576599,
        -0.9999750852584839
      ],
      "type": "VEC3"
    },
    {
      "bufferView": 3,
      "componentType": 5126,
      "count": 65532,
      "max": [
        0.9921568632125854,
        0.9921568632125854,
        0.9843137264251709,
        1.0
      ],
      "min": [
        0.0,
        0.0,
        0.0,
        1.0
      ],
      "type": "VEC4"
    },
    {
      "bufferView": 1,
      "componentType": 5126,
      "count": 65532,
      "max": [
        0.9997557401657104,
        0.9997557401657104
      ],
      "min": [
        0.000244140625,
        0.00024410022888332605
      ],
      "type": "VEC2"
    },
    {
      "bufferView": 0,
      "componentType": 5125,
      "count": 241887,
      "type": "SCALAR"
    },
    {
      "bufferView": 2,
      "byteOffset": 1572768,
      "componentType": 5126,
      "count": 19107,
      "max": [
        8.872686386108398,
        179.74874877929688,
        12.868148803710938
      ],
      "min": [
        -7.16334867477417,
        155.74102783203125,
        -8.743642807006836
      ],
      "type": "VEC3"
    },
    {
      "bufferView": 2,
      "byteOffset": 1802052,
      "componentType": 5126,
      "count": 19107,
      "max": [
        0.9997640252113342,
        0.999923586845398,
        0.9999143481254578
      ],
      "min": [
        -0.9999433755874634,
        -0.9998719096183777,
        -0.9993868470191956
      ],
      "type": "VEC3"
    },
    {
      "bufferView": 3,
      "byteOffset": 1048512,
      "componentType": 5126,
      "count": 19107,
      "max": [
        0.9921568632125854,
        0.9921568632125854,
        0.9843137264251709,
        1.0
      ],
      "min": [
        0.0,
        0.0,
        0.0,
        1.0
      ],
      "type": "VEC4"
    },
    {
      "bufferView": 1,
      "byteOffset": 524256,
      "componentType": 5126,
      "count": 19107,
      "max": [
        0.9997556209564209,
        0.9968260526657104
      ],
      "min": [
        0.000244140625,
        0.00024410022888332605
      ],
      "type": "VEC2"
    },
    {
      "bufferView": 0,
      "byteOffset": 967548,
      "componentType": 5125,
      "count": 50376,
      "type": "SCALAR"
    }
  ],
  "asset": {
    "extras": {
      "author": "203Null (https://sketchfab.com/203Null)",
      "license": "CC-BY-4.0 (http://creativecommons.org/licenses/by/4.0/)",
      "source": "https://sketchfab.com/3d-models/project-koishi-komeiji-fumo-37a56b489b5c4440bbabb7b7777036f6",
      "title": "東方Project Koishi Komeiji Fumo 古明地 こいし ふも"
    },
    "generator": "Sketchfab-14.24.0",
    "version": "2.0"
  },
  "bufferViews": [
    {
      "buffer": 0,
      "byteLength": 1169052,
      "name": "floatBufferViews",
      "target": 34963
    },
    {
      "buffer": 0,
      "byteLength": 677112,
      "byteOffset": 1169052,
      "byteStride": 8,
      "name": "floatBufferViews",
      "target": 34962
    },
    {
      "buffer": 0,
      "byteLength": 2031336,
      "byteOffset": 1846164,
      "byteStride": 12,
      "name": "floatBufferViews",
      "target": 34962
    },
    {
      "buffer": 0,
      "byteLength": 1354224,
      "byteOffset": 3877500,
      "byteStride": 16,
      "name": "floatBufferViews",
      "target": 34962
    }
  ],
  "buffers": [
    {
      "byteLength": 5231724,
      "uri": "scene.bin"
    }
  ],
  "images": [
    {
      "uri": "textures/Material_u1_v1_emissive.png"
    }
  ],
  "materials": [
    {
      "doubleSided": true,
      "emissiveFactor": [
        1.0,
        1.0,
        1.0
      ],
      "emissiveTexture": {
        "index": 0
      },
      "name": "Material_u1_v1",
      "pbrMetallicRoughness": {
        "roughnessFactor": 0.929289
      }
    }
  ],
  "meshes": [
    {
      "name": "Object_0",
      "primitives": [
        {
          "attributes": {
            "COLOR_0": 2,
            "NORMAL": 1,
            "POSITION": 0,
            "TEXCOORD_0": 3
          },
          "indices": 4,
          "material": 0,
          "mode": 4
        }
      ]
    },
    {
      "name": "Object_1",
      "primitives": [
        {
          "attributes": {
            "COLOR_0": 7,
            "NORMAL": 6,
            "POSITION": 5,
            "TEXCOORD_0": 8
          },
          "indices": 9,
          "material": 0,
          "mode": 4
        }
      ]
    }
  ],
  "nodes": [
    {
      "children": [
        1
      ],
      "matrix": [
        1.0,
        0.0,
        0.0,
        0.0,
        0.0,
        2.220446049250313e-16,
        -1.0,
        0.0,
        0.0,
        1.0,
        2.220446049250313e-16,
        0.0,
        0.0,
        0.0,
        0.0,
        1.0
      ],
      "name": "Sketchfab_model"
    },
    {
      "children": [
        2
      ],
      "name": "root"
    },
    {
      "children": [
        3
      ],
      "matrix": [
        1.0,
        0.0,
        0.0,
        0.0,
        0.0,
        2.220446049250313e-16,
        1.0,
        0.0,
        0.0,
        -1.0,
        2.220446049250313e-16,
        0.0,
        0.0,
        0.0,
        0.0,
        1.0
      ],
      "name": "GLTF_SceneRootNode"
    },
    {
      "children": [
        4,
        5
      ],
      "matrix": [
        -1.685873969314855e-07,
        0.0,
        0.9999999999999858,
        0.0,
        -0.0,
        1.0,
        0.0,
        0.0,
        -0.9999999999999858,
        -0.0,
        -1.685873969314855e-07,
        0.0,
        0.0,
        -154.70082092285156,
        0.0,
        1.0
      ],
      "name": "meshNode_0"
    },
    {
      "mesh": 0,
      "name": "Object_4"
    },
    {
      "mesh": 1,
      "name": "Object_5"
    }
  ],
  "samplers": [
    {
      "magFilter": 9729,
      "minFilter": 9987,
      "wrapS": 10497,
      "wrapT": 10497
    }
  ],
  "scene": 0,
  "scenes": [
    {
      "name": "Sketchfab_Scene",
      "nodes": [
        0
      ]
    }
  ],
  "textures": [
    {
      "sampler": 0,
      "source": 0
    }
  ]
}
