{
  "accessors": [
    {
      "bufferView": 2,
      "componentType": 5126,
      "count": 11333,
      "max": [
        0.0248384028673172,
        0.12999504804611206,
        0.0339411124587059
      ],
      "min": [
        -0.047774456441402435,
        0.022038109600543976,
        -0.04320590943098068
      ],
      "type": "VEC3"
    },
    {
      "bufferView": 2,
      "byteOffset": 135996,
      "componentType": 5126,
      "count": 11333,
      "max": [
        0.9997982382774353,
        0.9999163150787354,
        0.9997355341911316
      ],
      "min": [
        -0.9999999403953552,
        -0.9975934028625488,
        -0.9999294281005859
      ],
      "type": "VEC3"
    },
    {
      "bufferView": 1,
      "componentType": 5126,
      "count": 11333,
      "max": [
        0.9999619126319885,
        -1.491854800406145e-05
      ],
      "min": [
        0.00010868200479308143,
        -0.9988943338394165
      ],
      "type": "VEC2"
    },
    {
      "bufferView": 0,
      "componentType": 5125,
      "count": 60891,
      "type": "SCALAR"
    }
  ],
  "asset": {
    "extras": {
      "author": "Bad Name (https://sketchfab.com/buddythedog)",
      "license": "CC-BY-4.0 (http://creativecommons.org/licenses/by/4.0/)",
      "source": "https://sketchfab.com/3d-models/scuffed-sakuya-fumo-0d83abc11bfa434a96cedeb453e308b0",
      "title": "Scuffed Sakuya Fumo"
    },
    "generator": "Sketchfab-12.67.0",
    "version": "2.0"
  },
  "bufferViews": [
    {
      "buffer": 0,
      "byteLength": 243564,
      "name": "floatBufferViews",
      "target": 34963
    },
    {
      "buffer": 0,
      "byteLength": 90664,
      "byteOffset": 243564,
      "byteStride": 8,
      "name": "floatBufferViews",
      "target": 34962
    },
    {
      "buffer": 0,
      "byteLength": 271992,
      "byteOffset": 334228,
      "byteStride": 12,
      "name": "floatBufferViews",
      "target": 34962
    }
  ],
  "buffers": [
    {
      "byteLength": 606220,
      "uri": "scene.bin"
    }
  ],
  "extensionsUsed": [
    "KHR_materials_unlit"
  ],
  "images": [
    {
      "uri": "textures/Material.001_baseColor.jpeg"
    }
  ],
  "materials": [
    {
      "doubleSided": true,
      "extensions": {
        "KHR_materials_unlit": {}
      },
      "name": "Material.001",
      "pbrMetallicRoughness": {
        "baseColorTexture": {
          "index": 0
        },
        "metallicFactor": 0.0
      }
    }
  ],
  "meshes": [
    {
      "name": "Object_Material.001_0",
      "primitives": [
        {
          "attributes": {
            "NORMAL": 1,
            "POSITION": 0,
            "TEXCOORD_0": 2
          },
          "indices": 3,
          "material": 0,
          "mode": 4
        }
      ]
    }
  ],
  "nodes": [
    {
      "children": [
        1
      ],
      "matrix": [
        1.0,
        0.0,
        0.0,
        0.0,
        0.0,
        2.220446049250313e-16,
        -1.0,
        0.0,
        0.0,
        1.0,
        2.220446049250313e-16,
        0.0,
        0.0,
        0.0,
        0.0,
        1.0
      ],
      "name": "Sketchfab_model"
    },
    {
      "children": [
        2
      ],
      "matrix": [
        0.009999999776482582,
        0.0,
        0.0,
        0.0,
        0.0,
        0.0,
        0.009999999776482582,
        0.0,
        0.0,
        -0.009999999776482582,
        0.0,
        0.0,
        0.0,
        0.0,
        0.0,
        1.0
      ],
      "name": "7821341f909649de8ed369a43a5d9243.fbx"
    },
    {
      "children": [
        3
      ],
      "name": "RootNode"
    },
    {
      "children": [
        4
      ],
      "matrix": [
        1112.8497314453125,
        0.0,
        0.0,
        0.0,
        0.0,
        1112.8497314452977,
        0.00018130624048564366,
        0.0,
        0.0,
        -0.00018130624048564366,
        1112.8497314452977,
        0.0,
        0.0,
        -26.442888259887695,
        0.0,
        1.0
      ],
      "name": "Object"
    },
    {
      "mesh": 0,
      "name": "Object_Material.001_0"
    }
  ],
  "samplers": [
    {
      "magFilter": 9729,
      "minFilter": 9987,
      "wrapS": 10497,
      "wrapT": 10497
    }
  ],
  "scene": 0,
  "scenes": [
    {
      "name": "Sketchfab_Scene",
      "nodes": [
        0
      ]
    }
  ],
  "textures": [
    {
      "sampler": 0,
      "source": 0
    }
  ]
}
