{
  "accessors": [
    {
      "bufferView": 2,
      "componentType": 5126,
      "count": 37845,
      "max": [
        15.8836030960083,
        29.01566505432129,
        10.026900291442871
      ],
      "min": [
        -13.1612548828125,
        0.4874088764190674,
        -12.906152725219727
      ],
      "type": "VEC3"
    },
    {
      "bufferView": 2,
      "byteOffset": 454140,
      "componentType": 5126,
      "count": 37845,
      "max": [
        0.9995067119598389,
        0.9999153017997742,
        0.9999653697013855
      ],
      "min": [
        -0.9997361302375793,
        -0.9999695420265198,
        -0.9998422861099243
      ],
      "type": "VEC3"
    },
    {
      "bufferView": 3,
      "componentType": 5126,
      "count": 37845,
      "max": [
        0.95686274766922,
        0.95686274766922,
        0.9921568632125854,
        1.0
      ],
      "min": [
        0.0,
        0.0,
        0.0,
        1.0
      ],
      "type": "VEC4"
    },
    {
      "bufferView": 1,
      "componentType": 5126,
      "count": 37845,
      "max": [
        0.9997557401657104,
        0.9987791776657104
      ],
      "min": [
        0.000244140625,
        0.00024410022888332605
      ],
      "type": "VEC2"
    },
    {
      "bufferView": 0,
      "componentType": 5125,
      "count": 149709,
      "type": "SCALAR"
    }
  ],
  "asset": {
    "extras": {
      "author": "203Null (https://sketchfab.com/203Null)",
      "license": "CC-BY-4.0 (http://creativecommons.org/licenses/by/4.0/)",
      "source": "https://sketchfab.com/3d-models/project-sanae-kochiya-fumo-49518274d9b340d6b689298ba2ecc8a8",
      "title": "東方Project Sanae Kochiya Fumo 東風谷 早苗 ふも"
    },
    "generator": "Sketchfab-14.25.0",
    "version": "2.0"
  },
  "bufferViews": [
    {
      "buffer": 0,
      "byteLength": 598836,
      "name": "floatBufferViews",
      "target": 34963
    },
    {
      "buffer": 0,
      "byteLength": 302760,
      "byteOffset": 598836,
      "byteStride": 8,
      "name": "floatBufferViews",
      "target": 34962
    },
    {
      "buffer": 0,
      "byteLength": 908280,
      "byteOffset": 901596,
      "byteStride": 12,
      "name": "floatBufferViews",
      "target": 34962
    },
    {
      "buffer": 0,
      "byteLength": 605520,
      "byteOffset": 1809876,
      "byteStride": 16,
      "name": "floatBufferViews",
      "target": 34962
    }
  ],
  "buffers": [
    {
      "byteLength": 2415396,
      "uri": "scene.bin"
    }
  ],
  "images": [
    {
      "uri": "textures/Material_u1_v1_emissive.png"
    }
  ],
  "materials": [
    {
      "doubleSided": true,
      "emissiveFactor": [
        1.0,
        1.0,
        1.0
      ],
      "emissiveTexture": {
        "index": 0
      },
      "name": "Material_u1_v1"
    }
  ],
  "meshes": [
    {
      "name": "Object_0",
      "primitives": [
        {
          "attributes": {
            "COLOR_0": 2,
            "NORMAL": 1,
            "POSITION": 0,
            "TEXCOORD_0": 3
          },
          "indices": 4,
          "material": 0,
          "mode": 4
        }
      ]
    }
  ],
  "nodes": [
    {
      "children": [
        1
      ],
      "matrix": [
        1.0,
        0.0,
        0.0,
        0.0,
        0.0,
        2.220446049250313e-16,
        -1.0,
        0.0,
        0.0,
        1.0,
        2.220446049250313e-16,
        0.0,
        0.0,
        0.0,
        0.0,
        1.0
      ],
      "name": "Sketchfab_model"
    },
    {
      "children": [
        2
      ],
      "name": "root"
    },
    {
      "children": [
        3
      ],
      "matrix": [
        1.0,
        0.0,
        0.0,
        0.0,
        0.0,
        2.220446049250313e-16,
        1.0,
        0.0,
        0.0,
        -1.0,
        2.220446049250313e-16,
        0.0,
        0.0,
        0.0,
        0.0,
        1.0
      ],
      "name": "GLTF_SceneRootNode"
    },
    {
      "children": [
        4
      ],
      "matrix": [
        -0.0006538331763905995,
        0.0006510188213302785,
        0.007946614546547392,
        0.0,
        0.0003206049825617442,
        0.007968986780130567,
        -0.0006264728429347488,
        0.0,
        -0.007966788606601877,
        0.00026726442346840267,
        -0.0006773884449417025,
        0.0,
        0.0,
        0.0,
        0.0,
        1.0
      ],
      "name": "meshNode_0"
    },
    {
      "mesh": 0,
      "name": "Object_4"
    }
  ],
  "samplers": [
    {
      "magFilter": 9729,
      "minFilter": 9987,
      "wrapS": 10497,
      "wrapT": 10497
    }
  ],
  "scene": 0,
  "scenes": [
    {
      "name": "Sketchfab_Scene",
      "nodes": [
        0
      ]
    }
  ],
  "textures": [
    {
      "sampler": 0,
      "source": 0
    }
  ]
}
